<svg viewBox="0 0 96 96" xmlns="http://www.w3.org/2000/svg" xmlns:xlink="http://www.w3.org/1999/xlink" id="Icons_DoubleTapGesture" overflow="hidden"><path d="M51.2 21C51.2 14.9 46.3 10 40.2 10 34.1 10 29.2 14.9 29.2 21 29.2 24.1 30.5 27 32.7 29.1L32.7 23.8C31.2 19.7 33.3 15.1 37.4 13.5 41.5 11.9 46.1 14.1 47.7 18.2 48.4 20 48.4 22 47.7 23.8L47.7 29C49.9 27 51.2 24 51.2 21Z" fill="#FAA61A"/><path d="M40.2 4C30.8 4 23.2 11.6 23.2 21 23.2 27.5 26.9 33.4 32.7 36.3L32.7 32.9C26.2 28.8 24.2 20.1 28.4 13.6 32.6 7.1 41.1 5 47.7 9.2 54.3 13.4 56.2 22 52 28.5 50.9 30.2 49.4 31.7 47.7 32.8L47.7 36.2C56.1 32.1 59.6 21.9 55.5 13.5 52.6 7.7 46.6 4 40.2 4Z" fill="#FAA61A"/><path d="M35.7 21 35.7 64.7 35.7 64.7 31.9 48C31.3 45.6 28.9 44.1 26.5 44.6 24.1 45.2 22.6 47.5 23.1 49.9L28.5 74.3C28.7 75.3 29.3 76.3 30.2 76.9L40.2 84.6 40.2 91.4 66.4 91.4 66.4 87C66.4 80.6 73.6 80.1 73.6 68L73.6 51.7C73.6 48.7 71.2 46.3 68.2 46.3 66.8 46.3 65.5 46.8 64.5 47.7 64.5 47.5 64.5 47.4 64.5 47.2 64.5 44.2 62.1 41.8 59.1 41.8 57.7 41.8 56.3 42.3 55.3 43.3 54.6 40.4 51.7 38.5 48.8 39.2 46.3 39.8 44.6 41.9 44.6 44.4L44.5 44.4 44.5 21C44.5 18.5 42.5 16.5 40 16.5 37.7 16.5 35.7 18.5 35.7 21Z" fill="#FAA61A"/></svg>